# xmcd CD database file
#
# Track frame offsets:
#	150
#	36031
#	72974
#	103646
#	128565
#	146216
#	188427
#	207645
#	235505
#	265693
#	294983
#
# Disc length: 4096 seconds
#
# Revision: 1
# Processed by: cddbd v1.5.2PL0 Copyright (c) Steve Scherf et al.
# Submitted via: CDex 1.60beta1-cs1
#
DISCID=9a0ffe0b
DTITLE=Don Sebesky - Joyful Noise - A Tribute to Duke Ellington  [1999]
DYEAR=1999
DGENRE=Jazz
TTITLE0=Mood Indigo
TTITLE1=Creole Love Call
TTITLE2=Chelsea Bridge
TTITLE3=Caravan
TTITLE4=Warm Valley
TTITLE5=Take The Coltrane
TTITLE6=Satin Doll
TTITLE7=Joyful Noise Suite - I. Gladly
TTITLE8=Joyful Noise Suite - II. Sadly
TTITLE9=Joyful Noise Suite - III. Madly
TTITLE10=Ko-Ko
EXTD=YEAR: 1999
EXTT0=
EXTT1=
EXTT2=
EXTT3=
EXTT4=
EXTT5=
EXTT6=
EXTT7=
EXTT8=
EXTT9=
EXTT10=
PLAYORDER=
